<mxfile host="app.diagrams.net" agent="Mozilla/5.0 (Macintosh; Intel Mac OS X 10_15_7) AppleWebKit/537.36 (KHTML, like Gecko) Chrome/130.0.0.0 Safari/537.36" border="50" scale="3" compressed="false" locked="false" version="24.8.4">
  <diagram name="Blank" id="YmL12bMKpDGza6XwsDPr">
    <mxGraphModel dx="2474" dy="1433" grid="0" gridSize="10" guides="1" tooltips="1" connect="1" arrows="1" fold="1" page="0" pageScale="1" pageWidth="827" pageHeight="1169" background="none" math="1" shadow="0">
      <root>
        <mxCell id="X5NqExCQtvZxIxQ7pmgY-0" />
        <mxCell id="1" parent="X5NqExCQtvZxIxQ7pmgY-0" />
        <mxCell id="rWwdKjK6RKu9V2PEmX4Z-2" value="imerchantsettle" style="rounded=0;whiteSpace=wrap;html=1;fillColor=#d5e8d4;strokeColor=#82b366;" vertex="1" parent="1">
          <mxGeometry x="745" y="36" width="120" height="60" as="geometry" />
        </mxCell>
        <mxCell id="rWwdKjK6RKu9V2PEmX4Z-3" value="user" style="shape=umlActor;verticalLabelPosition=bottom;verticalAlign=top;html=1;outlineConnect=0;" vertex="1" parent="1">
          <mxGeometry x="-138" y="-57" width="30" height="60" as="geometry" />
        </mxCell>
        <mxCell id="rWwdKjK6RKu9V2PEmX4Z-8" value="opengw" style="rounded=0;whiteSpace=wrap;html=1;" vertex="1" parent="1">
          <mxGeometry x="157" y="43" width="120" height="60" as="geometry" />
        </mxCell>
        <mxCell id="rWwdKjK6RKu9V2PEmX4Z-9" value="" style="shape=flexArrow;endArrow=classic;html=1;rounded=0;width=18;endSize=4.33;" edge="1" parent="1">
          <mxGeometry width="50" height="50" relative="1" as="geometry">
            <mxPoint x="-86" y="-11" as="sourcePoint" />
            <mxPoint x="142" y="71" as="targetPoint" />
          </mxGeometry>
        </mxCell>
        <mxCell id="rWwdKjK6RKu9V2PEmX4Z-10" value="机构" style="whiteSpace=wrap;html=1;aspect=fixed;" vertex="1" parent="1">
          <mxGeometry x="-160" y="158" width="80" height="80" as="geometry" />
        </mxCell>
        <mxCell id="rWwdKjK6RKu9V2PEmX4Z-12" value="iacquirecenter" style="rounded=0;whiteSpace=wrap;html=1;" vertex="1" parent="1">
          <mxGeometry x="447" y="38" width="120" height="60" as="geometry" />
        </mxCell>
        <mxCell id="rWwdKjK6RKu9V2PEmX4Z-14" value="" style="shape=flexArrow;endArrow=classic;startArrow=classic;html=1;rounded=0;" edge="1" parent="1">
          <mxGeometry width="100" height="100" relative="1" as="geometry">
            <mxPoint x="-74" y="215" as="sourcePoint" />
            <mxPoint x="150" y="120" as="targetPoint" />
          </mxGeometry>
        </mxCell>
      </root>
    </mxGraphModel>
  </diagram>
</mxfile>
